<svg xmlns="http://www.w3.org/2000/svg" xmlns:xlink="http://www.w3.org/1999/xlink" width="226" height="29" viewBox="0 0 226 29">
    <defs>
        <path id="np0x0g1g8a" d="M0 0L20.591 0 20.591 22.786 0 22.786z"/>
        <path id="cnzwcyzlnc" d="M0 0L24.107 0 24.107 22.786 0 22.786z"/>
        <path id="bdvufsms8e" d="M0 0L17.076 0 17.076 22.268 0 22.268z"/>
    </defs>
    <g fill="none" fill-rule="evenodd">
        <g>
            <g>
                <g transform="translate(-74.000000, -46.000000) translate(74.000000, 46.000000) translate(0.000000, 5.696429)">
                    <mask id="wfxz9ol0hb" fill="#fff">
                        <use xlink:href="#np0x0g1g8a"/>
                    </mask>
                    <path fill="#1D1D1B" d="M16.581.262c1.132.178 2.038.405 2.714.687.21.07.344.159.403.264.058.106.099.286.123.544l.455 4.887c0 .072-.059.118-.175.142-.116.023-.199-.011-.245-.105-.653-1.923-1.587-3.395-2.802-4.413-1.214-1.02-2.674-1.53-4.377-1.53-1.589 0-3.006.427-4.254 1.283-1.25.856-2.231 2.082-2.943 3.674-.711 1.595-1.067 3.458-1.067 5.593 0 2.155.367 4.047 1.102 5.677.736 1.629 1.751 2.885 3.047 3.763 1.296.877 2.784 1.32 4.465 1.32 1.61 0 2.964-.443 4.062-1.32 1.097-.878 2.136-2.326 3.117-4.343.022-.07.094-.095.21-.07.116.021.175.07.175.14l-.525 4.36c-.048.283-.094.464-.14.545-.047.083-.175.17-.385.265-2.15.773-4.32 1.16-6.514 1.16-2.499 0-4.734-.475-6.706-1.425-1.973-.949-3.52-2.279-4.64-3.99C.56 15.657 0 13.712 0 11.533c0-2.228.578-4.214 1.733-5.96C2.89 3.826 4.476 2.46 6.497 1.477 8.516.492 10.763 0 13.237 0c1.097 0 2.213.088 3.344.262" mask="url(#wfxz9ol0hb)"/>
                </g>
                <path fill="#1D1D1B" d="M38.682 26.459c1.026-.76 1.827-1.874 2.403-3.34.577-1.466.866-3.217.866-5.256 0-2.156-.324-4.085-.97-5.784-.645-1.7-1.579-3.03-2.8-3.991-1.223-.962-2.652-1.442-4.289-1.442-2.098 0-3.712.801-4.841 2.409-1.13 1.606-1.695 3.85-1.695 6.732 0 2.274.339 4.309 1.02 6.102.68 1.793 1.613 3.194 2.802 4.202 1.187 1.008 2.53 1.51 4.029 1.51 1.29 0 2.449-.38 3.475-1.142m-10.34.494c-1.673-1.021-2.963-2.404-3.875-4.151-.91-1.744-1.365-3.65-1.365-5.711 0-2.417.6-4.485 1.799-6.21 1.198-1.721 2.737-3.017 4.617-3.885 1.878-.865 3.798-1.3 5.757-1.3 2.19 0 4.115.522 5.776 1.565 1.66 1.043 2.934 2.421 3.822 4.13.887 1.712 1.331 3.53 1.331 5.45 0 2.135-.553 4.091-1.66 5.876-1.106 1.78-2.588 3.186-4.445 4.218-1.855 1.032-3.867 1.547-6.034 1.547-2.145 0-4.053-.51-5.723-1.53M65.297 5.959c1.132.177 2.037.404 2.714.687.21.07.344.158.403.263.057.106.098.287.122.544l.455 4.888c0 .071-.058.118-.175.142-.116.022-.198-.012-.245-.106-.653-1.923-1.587-3.394-2.801-4.413-1.215-1.02-2.674-1.53-4.378-1.53-1.588 0-3.005.428-4.253 1.283-1.25.856-2.231 2.082-2.943 3.674-.712 1.595-1.067 3.459-1.067 5.593 0 2.155.367 4.048 1.102 5.678.735 1.628 1.751 2.884 3.047 3.762 1.295.878 2.784 1.32 4.465 1.32 1.61 0 2.964-.442 4.062-1.32 1.097-.878 2.136-2.326 3.116-4.342.023-.07.094-.096.21-.07.117.02.176.07.176.139l-.526 4.36c-.047.283-.093.464-.14.546-.046.083-.175.17-.385.265-2.149.772-4.32 1.16-6.513 1.16-2.5 0-4.734-.476-6.707-1.425-1.972-.95-3.519-2.28-4.64-3.99-1.12-1.714-1.68-3.659-1.68-5.838 0-2.227.577-4.214 1.733-5.96 1.156-1.746 2.743-3.113 4.764-4.096 2.018-.984 4.266-1.477 6.74-1.477 1.097 0 2.212.088 3.344.263M78.098 27.2c.11.33.322.556.638.675.316.12.823.18 1.521.18.066 0 .099.07.099.213 0 .142-.033.214-.099.214-.72 0-1.287-.013-1.7-.037l-2.487-.035-2.42.035c-.437.024-1.026.037-1.767.037-.043 0-.065-.072-.065-.214 0-.143.022-.213.065-.213.698 0 1.21-.06 1.538-.18.327-.12.55-.35.67-.696.12-.342.18-.871.18-1.585V9.1c0-.712-.06-1.234-.18-1.568-.12-.333-.343-.563-.67-.694-.327-.13-.84-.196-1.538-.196-.043 0-.065-.071-.065-.214 0-.142.022-.214.065-.214l1.767.036c1.002.047 1.81.071 2.42.071.676 0 1.517-.024 2.52-.071l1.667-.036c.066 0 .099.072.099.214 0 .143-.033.214-.099.214-.675 0-1.177.07-1.504.214-.327.142-.546.385-.655.73-.11.343-.163.873-.163 1.585v16.423c0 .738.054 1.272.163 1.606" transform="translate(-74.000000, -46.000000) translate(74.000000, 46.000000)"/>
                <g transform="translate(-74.000000, -46.000000) translate(74.000000, 46.000000) translate(83.871111, 6.214286)">
                    <mask id="ged5pkrrod" fill="#fff">
                        <use xlink:href="#cnzwcyzlnc"/>
                    </mask>
                    <path fill="#1D1D1B" d="M24.107.212c0 .142-.024.212-.069.212-.912 0-1.63.372-2.153 1.114-.525.743-.787 1.74-.787 2.988v18.107c0 .072-.052.119-.154.14-.103.025-.176.013-.221-.034L4.686 3.854V17.61c0 1.252.25 2.24.75 2.97.503.733 1.198 1.098 2.087 1.098.045 0 .07.07.07.212 0 .14-.025.212-.07.212-.639 0-1.129-.012-1.47-.036l-1.847-.036-2.12.036c-.389.024-.947.036-1.674.036-.07 0-.104-.072-.104-.212 0-.142.034-.212.104-.212 1 0 1.794-.365 2.375-1.097.582-.73.872-1.72.872-2.97V2.652C2.908 1.805 2.262 1.22 1.727.902 1.19.583.637.424.068.424.022.424 0 .354 0 .212 0 .071.022 0 .068 0l1.437.035c.295.024.73.036 1.3.036L5.404.035C5.72.013 6.11 0 6.565 0c.182 0 .319.048.412.141.09.095.25.296.477.602.389.543.66.908.82 1.096l11.833 14.108V4.527c0-1.274-.251-2.276-.753-3.006S18.157.424 17.268.424c-.047 0-.068-.07-.068-.212 0-.141.021-.212.068-.212l1.47.035c.73.047 1.345.071 1.847.071.455 0 1.094-.024 1.916-.07L24.038 0c.045 0 .069.07.069.212" mask="url(#ged5pkrrod)"/>
                </g>
                <path fill="#1D1D1B" d="M115.305 19.426h7.5l-3.958-8.032-3.542 8.032zm17.784 8.845c0 .14-.058.211-.17.211-.462 0-1.172-.025-2.134-.072-1.01-.046-1.732-.071-2.167-.071-.572 0-1.274.025-2.1.071-.779.047-1.398.072-1.856.072-.09 0-.138-.072-.138-.211 0-.142.047-.212.138-.212.595 0 1.027-.066 1.291-.193.26-.131.393-.36.393-.689 0-.398-.228-1.07-.686-2.008l-2.34-4.756h-8.462l-1.342 3.065c-.298.68-.447 1.315-.447 1.903 0 .845.292 1.503.877 1.973.585.469 1.37.705 2.357.705.114 0 .172.07.172.212 0 .14-.058.211-.172.211-.413 0-1.01-.025-1.79-.072-.871-.046-1.628-.071-2.27-.071-.619 0-1.366.025-2.236.071-.78.047-1.41.072-1.893.072-.09 0-.136-.072-.136-.211 0-.142.045-.212.136-.212.643 0 1.182-.136 1.618-.405.435-.27.871-.752 1.306-1.445.436-.694.952-1.72 1.55-3.082l7.464-16.807c.046-.07.149-.106.31-.106.182 0 .285.037.31.106l8.6 17.336c.8 1.666 1.468 2.816 1.996 3.452.525.634 1.078.951 1.65.951.113 0 .17.07.17.212z" transform="translate(-74.000000, -46.000000) translate(74.000000, 46.000000)"/>
                <path fill="#B22234" d="M150.164 11.273c0 .049-.063.084-.192.107-.127.026-.204 0-.226-.071-.373-1.378-1.002-2.399-1.885-3.063-.884-.665-2.048-.999-3.491-.999h-1.047c-.7 0-1.211.156-1.538.464-.325.309-.486.783-.486 1.425v7.698h2.512c1.35 0 2.379-.245 3.09-.732.709-.487 1.064-1.158 1.064-2.013 0-.047.071-.073.21-.073.14 0 .21.026.21.073l-.035 3.24c0 .762.01 1.333.034 1.71l.035 1.888c0 .072-.069.107-.21.107-.139 0-.209-.035-.209-.107 0-.95-.365-1.701-1.098-2.26-.733-.559-1.776-.837-3.124-.837h-2.479v7.624c0 .735.092 1.281.277 1.64.188.355.536.603 1.047.747.514.142 1.315.214 2.411.214.046 0 .068.07.068.213s-.022.214-.068.214c-.955 0-1.7-.011-2.235-.037l-3.56-.034-2.618.034c-.467.026-1.105.037-1.92.037-.07 0-.105-.071-.105-.214 0-.143.036-.213.104-.213.816 0 1.408-.059 1.78-.179.372-.12.623-.35.752-.695.128-.344.19-.873.19-1.586V9.101c0-.713-.059-1.235-.172-1.567-.117-.334-.352-.565-.7-.695-.347-.131-.884-.197-1.604-.197-.071 0-.105-.07-.105-.214 0-.142.034-.214.105-.214h14.8c.231 0 .347.107.347.32l.071 4.74zM158.24 4.094c-.09 0-.154-.054-.19-.16-.034-.105-.016-.18.054-.228.71-.516 1.707-1.338 2.991-2.464.297-.28.747-.68 1.342-1.197.115-.094.523-.04 1.22.158.701.2 1.32.429 1.858.686.54.26.672.412.396.458-2.706.704-5.252 1.62-7.635 2.747h-.036zm-1.754 14.821h7.499l-3.955-8.027-3.544 8.027zm17.785 9.356c0 .14-.058.211-.173.211-.458 0-1.168-.024-2.133-.07-1.007-.047-1.73-.072-2.167-.072-.574 0-1.271.025-2.097.072-.78.046-1.4.07-1.858.07-.093 0-.138-.07-.138-.211 0-.142.045-.211.138-.211.596 0 1.025-.066 1.29-.194.263-.13.396-.358.396-.688 0-.397-.231-1.067-.69-2.005l-2.338-4.753h-8.461l-1.342 3.063c-.3.68-.448 1.314-.448 1.901 0 .844.292 1.503.878 1.972.585.469 1.37.704 2.357.704.115 0 .171.069.171.21 0 .142-.056.212-.171.212-.413 0-1.01-.024-1.79-.07-.871-.047-1.627-.072-2.27-.072-.62 0-1.366.025-2.237.072-.78.046-1.409.07-1.89.07-.093 0-.138-.07-.138-.211 0-.142.045-.211.138-.211.64 0 1.18-.135 1.616-.405.435-.27.871-.75 1.306-1.444.436-.692.952-1.718 1.55-3.079l7.463-16.796c.048-.07.15-.105.31-.105.184 0 .287.035.31.105l8.6 17.323c.802 1.666 1.467 2.815 1.994 3.451.528.633 1.077.95 1.65.95.116 0 .174.069.174.21zM190.35 6.477c1.132.177 2.037.404 2.713.687.21.07.344.158.403.263.059.106.1.287.122.544l.457 4.887c0 .072-.059.119-.176.142-.117.023-.198-.01-.244-.105-.654-1.923-1.587-3.394-2.802-4.413-1.214-1.02-2.675-1.53-4.377-1.53-1.588 0-3.006.428-4.254 1.283-1.248.856-2.231 2.082-2.942 3.674-.713 1.595-1.068 3.458-1.068 5.593 0 2.155.367 4.048 1.102 5.678.735 1.628 1.752 2.884 3.046 3.762 1.297.878 2.784 1.32 4.465 1.32 1.612 0 2.965-.442 4.062-1.32 1.097-.878 2.137-2.326 3.117-4.343.022-.07.093-.095.21-.07.117.021.176.07.176.14l-.525 4.36c-.049.283-.095.464-.142.546-.046.083-.173.17-.384.265-2.15.772-4.32 1.16-6.514 1.16-2.499 0-4.733-.476-6.704-1.425-1.974-.95-3.52-2.28-4.641-3.991-1.12-1.713-1.681-3.658-1.681-5.837 0-2.228.579-4.214 1.734-5.96 1.156-1.746 2.743-3.113 4.763-4.096 2.018-.984 4.266-1.477 6.74-1.477 1.096 0 2.213.088 3.343.263M203.654 27.2c.11.33.321.556.639.675.314.12.821.18 1.52.18.065 0 .098.07.098.213 0 .142-.033.214-.098.214-.72 0-1.288-.013-1.7-.037l-2.488-.035-2.42.035c-.438.024-1.027.037-1.767.037-.044 0-.065-.072-.065-.214 0-.143.021-.213.065-.213.697 0 1.211-.06 1.537-.18.329-.12.55-.35.67-.696.12-.342.182-.871.182-1.585V9.1c0-.712-.062-1.234-.181-1.568-.12-.333-.342-.563-.67-.694-.327-.13-.84-.196-1.538-.196-.044 0-.065-.071-.065-.214 0-.142.021-.214.065-.214l1.767.036c1.003.047 1.81.071 2.42.071.676 0 1.518-.024 2.52-.071l1.668-.036c.065 0 .098.072.098.214 0 .143-.033.214-.098.214-.675 0-1.178.07-1.504.214-.327.142-.545.385-.655.73-.11.343-.163.873-.163 1.585v16.423c0 .738.053 1.272.163 1.606" transform="translate(-74.000000, -46.000000) translate(74.000000, 46.000000)"/>
                <g transform="translate(-74.000000, -46.000000) translate(74.000000, 46.000000) translate(208.924444, 6.214286)">
                    <mask id="i3a2q12lpf" fill="#fff">
                        <use xlink:href="#bdvufsms8e"/>
                    </mask>
                    <path fill="#B22234" d="M6.343 19.238c0 .619.046 1.064.136 1.338.092.273.269.456.532.55.263.096.69.143 1.287.143h1.165c1.784 0 3.327-.492 4.63-1.478 1.304-.985 2.172-2.323 2.605-4.01 0-.047.045-.07.138-.07.045 0 .095.018.153.052.058.037.087.068.087.09-.206 2.352-.309 4.313-.309 5.88 0 .189-.04.326-.12.408-.08.085-.213.127-.394.127H.067c-.045 0-.067-.073-.067-.214 0-.144.022-.214.067-.214.733 0 1.263-.06 1.596-.18.33-.117.56-.349.686-.695.125-.342.19-.872.19-1.585V2.886c0-.713-.065-1.234-.19-1.568-.126-.333-.361-.563-.703-.695C1.302.493.776.428.067.428.022.428 0 .356 0 .214 0 .07.022 0 .067 0l1.75.036c1.051.047 1.92.07 2.606.07.686 0 1.554-.023 2.607-.07L8.778 0c.067 0 .103.071.103.214 0 .142-.036.214-.103.214-.71 0-1.234.066-1.579.195-.341.132-.571.37-.685.713-.113.345-.17.872-.17 1.585v16.317z" mask="url(#i3a2q12lpf)"/>
                </g>
            </g>
        </g>
    </g>
</svg>
